<svg xmlns="http://www.w3.org/2000/svg" viewBox="0 0 180 180" width="180" height="180"><rect width="180" height="180" rx="36" fill="#14110e"/><g transform="translate(22,22)"><line x1="68" y1="68" x2="79.96779264554056" y2="23.335589792393478" stroke="#a89878" stroke-width="5.44"/><line x1="68" y1="68" x2="112.66441020760652" y2="56.032207354459445" stroke="#a89878" stroke-width="5.44"/><line x1="68" y1="68" x2="100.69661756206597" y2="100.69661756206595" stroke="#a89878" stroke-width="5.44"/><line x1="68" y1="68" x2="56.03220735445944" y2="112.66441020760652" stroke="#a89878" stroke-width="5.44"/><line x1="68" y1="68" x2="23.335589792393485" y2="79.96779264554057" stroke="#a89878" stroke-width="5.44"/><line x1="68" y1="68" x2="35.30338243793403" y2="35.30338243793405" stroke="#a89878" stroke-width="5.44"/><line x1="79.96779264554056" y1="23.335589792393478" x2="100.69661756206597" y2="100.69661756206595" stroke="#6b5f50" stroke-width="4.08"/><line x1="112.66441020760652" y1="56.032207354459445" x2="56.03220735445944" y2="112.66441020760652" stroke="#6b5f50" stroke-width="4.08"/><line x1="100.69661756206597" y1="100.69661756206595" x2="23.335589792393485" y2="79.96779264554057" stroke="#6b5f50" stroke-width="4.08"/><line x1="56.03220735445944" y1="112.66441020760652" x2="35.30338243793403" y2="35.30338243793405" stroke="#6b5f50" stroke-width="4.08"/><line x1="23.335589792393485" y1="79.96779264554057" x2="79.96779264554056" y2="23.335589792393478" stroke="#6b5f50" stroke-width="4.08"/><line x1="35.30338243793403" y1="35.30338243793405" x2="112.66441020760652" y2="56.032207354459445" stroke="#6b5f50" stroke-width="4.08"/><circle cx="68" cy="68" r="24.480000000000004" fill="#e8b44a" opacity=".1"/><circle cx="68" cy="68" r="13.600000000000001" fill="#e8b44a"/><circle cx="79.96779264554056" cy="23.335589792393478" r="9.520000000000001" fill="#e06530"/><circle cx="112.66441020760652" cy="56.032207354459445" r="9.520000000000001" fill="#e8b44a"/><circle cx="100.69661756206597" cy="100.69661756206595" r="9.520000000000001" fill="#4ca8a8"/><circle cx="56.03220735445944" cy="112.66441020760652" r="9.520000000000001" fill="#e06530"/><circle cx="23.335589792393485" cy="79.96779264554057" r="9.520000000000001" fill="#4ca8a8"/><circle cx="35.30338243793403" cy="35.30338243793405" r="9.520000000000001" fill="#e8b44a"/></g></svg>