<svg xmlns="http://www.w3.org/2000/svg" viewBox="0 0 180 180" width="180" height="180"><rect width="180" height="180" rx="36" fill="#14110e"/><g transform="translate(27,27)"><line x1="63" y1="63" x2="74.08780789219199" y2="21.619737601776308" stroke="#f5f0e4" stroke-width="3.1500000000000004" opacity="0.55"/><line x1="63" y1="63" x2="104.38026239822369" y2="51.91219210780801" stroke="#f5f0e4" stroke-width="3.1500000000000004" opacity="0.55"/><line x1="63" y1="63" x2="93.2924545060317" y2="93.2924545060317" stroke="#f5f0e4" stroke-width="3.1500000000000004" opacity="0.55"/><line x1="63" y1="63" x2="51.912192107808" y2="104.38026239822369" stroke="#f5f0e4" stroke-width="3.1500000000000004" opacity="0.55"/><line x1="63" y1="63" x2="21.619737601776315" y2="74.087807892192" stroke="#f5f0e4" stroke-width="3.1500000000000004" opacity="0.55"/><line x1="63" y1="63" x2="32.7075454939683" y2="32.707545493968304" stroke="#f5f0e4" stroke-width="3.1500000000000004" opacity="0.55"/><line x1="74.08780789219199" y1="21.619737601776308" x2="93.2924545060317" y2="93.2924545060317" stroke="#f5f0e4" stroke-width="2.205" opacity="0.24750000000000003"/><line x1="104.38026239822369" y1="51.91219210780801" x2="51.912192107808" y2="104.38026239822369" stroke="#f5f0e4" stroke-width="2.205" opacity="0.24750000000000003"/><line x1="93.2924545060317" y1="93.2924545060317" x2="21.619737601776315" y2="74.087807892192" stroke="#f5f0e4" stroke-width="2.205" opacity="0.24750000000000003"/><line x1="51.912192107808" y1="104.38026239822369" x2="32.7075454939683" y2="32.707545493968304" stroke="#f5f0e4" stroke-width="2.205" opacity="0.24750000000000003"/><line x1="21.619737601776315" y1="74.087807892192" x2="74.08780789219199" y2="21.619737601776308" stroke="#f5f0e4" stroke-width="2.205" opacity="0.24750000000000003"/><line x1="32.7075454939683" y1="32.707545493968304" x2="104.38026239822369" y2="51.91219210780801" stroke="#f5f0e4" stroke-width="2.205" opacity="0.24750000000000003"/><circle cx="63" cy="63" r="18.144000000000002" fill="#e8b44a" opacity=".08"/><circle cx="63" cy="63" r="10.08" fill="#e8b44a"/><circle cx="74.08780789219199" cy="21.619737601776308" r="6.93" fill="#e06530"/><circle cx="104.38026239822369" cy="51.91219210780801" r="6.93" fill="#e8b44a"/><circle cx="93.2924545060317" cy="93.2924545060317" r="6.93" fill="#4ca8a8"/><circle cx="51.912192107808" cy="104.38026239822369" r="6.93" fill="#e06530"/><circle cx="21.619737601776315" cy="74.087807892192" r="6.93" fill="#4ca8a8"/><circle cx="32.7075454939683" cy="32.707545493968304" r="6.93" fill="#e8b44a"/></g></svg>