<svg xmlns="http://www.w3.org/2000/svg" viewBox="0 0 16 16" width="16" height="16"><rect width="16" height="16" rx="3" fill="#14110e"/><g transform="translate(2,2)"><line x1="6" y1="6" x2="7.055981704018285" y2="2.059022628740601" stroke="#f5f0e4" stroke-width="1.5" opacity="0.55"/><line x1="6" y1="6" x2="9.940977371259399" y2="4.944018295981715" stroke="#f5f0e4" stroke-width="1.5" opacity="0.55"/><line x1="6" y1="6" x2="8.884995667241114" y2="8.884995667241114" stroke="#f5f0e4" stroke-width="1.5" opacity="0.55"/><line x1="6" y1="6" x2="4.944018295981715" y2="9.940977371259399" stroke="#f5f0e4" stroke-width="1.5" opacity="0.55"/><line x1="6" y1="6" x2="2.0590226287406015" y2="7.0559817040182855" stroke="#f5f0e4" stroke-width="1.5" opacity="0.55"/><line x1="6" y1="6" x2="3.115004332758885" y2="3.115004332758886" stroke="#f5f0e4" stroke-width="1.5" opacity="0.55"/><line x1="7.055981704018285" y1="2.059022628740601" x2="8.884995667241114" y2="8.884995667241114" stroke="#f5f0e4" stroke-width="1.0499999999999998" opacity="0.24750000000000003"/><line x1="9.940977371259399" y1="4.944018295981715" x2="4.944018295981715" y2="9.940977371259399" stroke="#f5f0e4" stroke-width="1.0499999999999998" opacity="0.24750000000000003"/><line x1="8.884995667241114" y1="8.884995667241114" x2="2.0590226287406015" y2="7.0559817040182855" stroke="#f5f0e4" stroke-width="1.0499999999999998" opacity="0.24750000000000003"/><line x1="4.944018295981715" y1="9.940977371259399" x2="3.115004332758885" y2="3.115004332758886" stroke="#f5f0e4" stroke-width="1.0499999999999998" opacity="0.24750000000000003"/><line x1="2.0590226287406015" y1="7.0559817040182855" x2="7.055981704018285" y2="2.059022628740601" stroke="#f5f0e4" stroke-width="1.0499999999999998" opacity="0.24750000000000003"/><line x1="3.115004332758885" y1="3.115004332758886" x2="9.940977371259399" y2="4.944018295981715" stroke="#f5f0e4" stroke-width="1.0499999999999998" opacity="0.24750000000000003"/><circle cx="6" cy="6" r="1.728" fill="#e8b44a" opacity=".08"/><circle cx="6" cy="6" r="0.96" fill="#e8b44a"/><circle cx="7.055981704018285" cy="2.059022628740601" r="0.66" fill="#e06530"/><circle cx="9.940977371259399" cy="4.944018295981715" r="0.66" fill="#e8b44a"/><circle cx="8.884995667241114" cy="8.884995667241114" r="0.66" fill="#4ca8a8"/><circle cx="4.944018295981715" cy="9.940977371259399" r="0.66" fill="#e06530"/><circle cx="2.0590226287406015" cy="7.0559817040182855" r="0.66" fill="#4ca8a8"/><circle cx="3.115004332758885" cy="3.115004332758886" r="0.66" fill="#e8b44a"/></g></svg>