<svg xmlns="http://www.w3.org/2000/svg" viewBox="0 0 32 32" width="32" height="32"><rect width="32" height="32" rx="6" fill="#14110e"/><g transform="translate(5,5)"><line x1="11" y1="11" x2="12.935966457366856" y2="3.774874819357769" stroke="#f5f0e4" stroke-width="1.5" opacity="0.55"/><line x1="11" y1="11" x2="18.22512518064223" y2="9.064033542633144" stroke="#f5f0e4" stroke-width="1.5" opacity="0.55"/><line x1="11" y1="11" x2="16.289158723275378" y2="16.289158723275374" stroke="#f5f0e4" stroke-width="1.5" opacity="0.55"/><line x1="11" y1="11" x2="9.064033542633144" y2="18.22512518064223" stroke="#f5f0e4" stroke-width="1.5" opacity="0.55"/><line x1="11" y1="11" x2="3.7748748193577697" y2="12.935966457366858" stroke="#f5f0e4" stroke-width="1.5" opacity="0.55"/><line x1="11" y1="11" x2="5.710841276724623" y2="5.710841276724625" stroke="#f5f0e4" stroke-width="1.5" opacity="0.55"/><line x1="12.935966457366856" y1="3.774874819357769" x2="16.289158723275378" y2="16.289158723275374" stroke="#f5f0e4" stroke-width="1.0499999999999998" opacity="0.24750000000000003"/><line x1="18.22512518064223" y1="9.064033542633144" x2="9.064033542633144" y2="18.22512518064223" stroke="#f5f0e4" stroke-width="1.0499999999999998" opacity="0.24750000000000003"/><line x1="16.289158723275378" y1="16.289158723275374" x2="3.7748748193577697" y2="12.935966457366858" stroke="#f5f0e4" stroke-width="1.0499999999999998" opacity="0.24750000000000003"/><line x1="9.064033542633144" y1="18.22512518064223" x2="5.710841276724623" y2="5.710841276724625" stroke="#f5f0e4" stroke-width="1.0499999999999998" opacity="0.24750000000000003"/><line x1="3.7748748193577697" y1="12.935966457366858" x2="12.935966457366856" y2="3.774874819357769" stroke="#f5f0e4" stroke-width="1.0499999999999998" opacity="0.24750000000000003"/><line x1="5.710841276724623" y1="5.710841276724625" x2="18.22512518064223" y2="9.064033542633144" stroke="#f5f0e4" stroke-width="1.0499999999999998" opacity="0.24750000000000003"/><circle cx="11" cy="11" r="3.168" fill="#e8b44a" opacity=".08"/><circle cx="11" cy="11" r="1.76" fill="#e8b44a"/><circle cx="12.935966457366856" cy="3.774874819357769" r="1.21" fill="#e06530"/><circle cx="18.22512518064223" cy="9.064033542633144" r="1.21" fill="#e8b44a"/><circle cx="16.289158723275378" cy="16.289158723275374" r="1.21" fill="#4ca8a8"/><circle cx="9.064033542633144" cy="18.22512518064223" r="1.21" fill="#e06530"/><circle cx="3.7748748193577697" cy="12.935966457366858" r="1.21" fill="#4ca8a8"/><circle cx="5.710841276724623" cy="5.710841276724625" r="1.21" fill="#e8b44a"/></g></svg>