<svg xmlns="http://www.w3.org/2000/svg" viewBox="0 0 32 32" width="32" height="32"><rect width="32" height="32" rx="6" fill="#14110e"/><g transform="translate(4,4)"><line x1="12" y1="12" x2="14.11196340803657" y2="4.118045257481202" stroke="#a89878" stroke-width="2"/><line x1="12" y1="12" x2="19.881954742518797" y2="9.88803659196343" stroke="#a89878" stroke-width="2"/><line x1="12" y1="12" x2="17.769991334482228" y2="17.769991334482228" stroke="#a89878" stroke-width="2"/><line x1="12" y1="12" x2="9.88803659196343" y2="19.881954742518797" stroke="#a89878" stroke-width="2"/><line x1="12" y1="12" x2="4.118045257481203" y2="14.111963408036571" stroke="#a89878" stroke-width="2"/><line x1="12" y1="12" x2="6.23000866551777" y2="6.230008665517772" stroke="#a89878" stroke-width="2"/><line x1="14.11196340803657" y1="4.118045257481202" x2="17.769991334482228" y2="17.769991334482228" stroke="#6b5f50" stroke-width="1.5"/><line x1="19.881954742518797" y1="9.88803659196343" x2="9.88803659196343" y2="19.881954742518797" stroke="#6b5f50" stroke-width="1.5"/><line x1="17.769991334482228" y1="17.769991334482228" x2="4.118045257481203" y2="14.111963408036571" stroke="#6b5f50" stroke-width="1.5"/><line x1="9.88803659196343" y1="19.881954742518797" x2="6.23000866551777" y2="6.230008665517772" stroke="#6b5f50" stroke-width="1.5"/><line x1="4.118045257481203" y1="14.111963408036571" x2="14.11196340803657" y2="4.118045257481202" stroke="#6b5f50" stroke-width="1.5"/><line x1="6.23000866551777" y1="6.230008665517772" x2="19.881954742518797" y2="9.88803659196343" stroke="#6b5f50" stroke-width="1.5"/><circle cx="12" cy="12" r="4.320000000000001" fill="#e8b44a" opacity=".1"/><circle cx="12" cy="12" r="2.4000000000000004" fill="#e8b44a"/><circle cx="14.11196340803657" cy="4.118045257481202" r="1.6800000000000002" fill="#e06530"/><circle cx="19.881954742518797" cy="9.88803659196343" r="1.6800000000000002" fill="#e8b44a"/><circle cx="17.769991334482228" cy="17.769991334482228" r="1.6800000000000002" fill="#4ca8a8"/><circle cx="9.88803659196343" cy="19.881954742518797" r="1.6800000000000002" fill="#e06530"/><circle cx="4.118045257481203" cy="14.111963408036571" r="1.6800000000000002" fill="#4ca8a8"/><circle cx="6.23000866551777" cy="6.230008665517772" r="1.6800000000000002" fill="#e8b44a"/></g></svg>