<svg xmlns="http://www.w3.org/2000/svg" viewBox="0 0 192 192" width="192" height="192"><rect width="192" height="192" rx="38" fill="#14110e"/><g transform="translate(23,23)"><line x1="73" y1="73" x2="85.84777739888914" y2="25.051441983010648" stroke="#a89878" stroke-width="5.84"/><line x1="73" y1="73" x2="120.94855801698935" y2="60.15222260111087" stroke="#a89878" stroke-width="5.84"/><line x1="73" y1="73" x2="108.10078061810023" y2="108.10078061810022" stroke="#a89878" stroke-width="5.84"/><line x1="73" y1="73" x2="60.152222601110864" y2="120.94855801698935" stroke="#a89878" stroke-width="5.84"/><line x1="73" y1="73" x2="25.051441983010655" y2="85.84777739888915" stroke="#a89878" stroke-width="5.84"/><line x1="73" y1="73" x2="37.89921938189977" y2="37.89921938189978" stroke="#a89878" stroke-width="5.84"/><line x1="85.84777739888914" y1="25.051441983010648" x2="108.10078061810023" y2="108.10078061810022" stroke="#6b5f50" stroke-width="4.38"/><line x1="120.94855801698935" y1="60.15222260111087" x2="60.152222601110864" y2="120.94855801698935" stroke="#6b5f50" stroke-width="4.38"/><line x1="108.10078061810023" y1="108.10078061810022" x2="25.051441983010655" y2="85.84777739888915" stroke="#6b5f50" stroke-width="4.38"/><line x1="60.152222601110864" y1="120.94855801698935" x2="37.89921938189977" y2="37.89921938189978" stroke="#6b5f50" stroke-width="4.38"/><line x1="25.051441983010655" y1="85.84777739888915" x2="85.84777739888914" y2="25.051441983010648" stroke="#6b5f50" stroke-width="4.38"/><line x1="37.89921938189977" y1="37.89921938189978" x2="120.94855801698935" y2="60.15222260111087" stroke="#6b5f50" stroke-width="4.38"/><circle cx="73" cy="73" r="26.280000000000005" fill="#e8b44a" opacity=".1"/><circle cx="73" cy="73" r="14.600000000000001" fill="#e8b44a"/><circle cx="85.84777739888914" cy="25.051441983010648" r="10.22" fill="#e06530"/><circle cx="120.94855801698935" cy="60.15222260111087" r="10.22" fill="#e8b44a"/><circle cx="108.10078061810023" cy="108.10078061810022" r="10.22" fill="#4ca8a8"/><circle cx="60.152222601110864" cy="120.94855801698935" r="10.22" fill="#e06530"/><circle cx="25.051441983010655" cy="85.84777739888915" r="10.22" fill="#4ca8a8"/><circle cx="37.89921938189977" cy="37.89921938189978" r="10.22" fill="#e8b44a"/></g></svg>