<svg xmlns="http://www.w3.org/2000/svg" viewBox="0 0 512 512" width="512" height="512"><rect width="512" height="512" rx="102" fill="#14110e"/><g transform="translate(61,61)"><line x1="195" y1="195" x2="229.31940538059425" y2="66.91823543406952" stroke="#a89878" stroke-width="15.6"/><line x1="195" y1="195" x2="323.0817645659305" y2="160.68059461940575" stroke="#a89878" stroke-width="15.6"/><line x1="195" y1="195" x2="288.7623591853362" y2="288.7623591853362" stroke="#a89878" stroke-width="15.6"/><line x1="195" y1="195" x2="160.68059461940572" y2="323.0817645659305" stroke="#a89878" stroke-width="15.6"/><line x1="195" y1="195" x2="66.91823543406954" y2="229.31940538059428" stroke="#a89878" stroke-width="15.6"/><line x1="195" y1="195" x2="101.23764081466376" y2="101.23764081466379" stroke="#a89878" stroke-width="15.6"/><line x1="229.31940538059425" y1="66.91823543406952" x2="288.7623591853362" y2="288.7623591853362" stroke="#6b5f50" stroke-width="11.7"/><line x1="323.0817645659305" y1="160.68059461940575" x2="160.68059461940572" y2="323.0817645659305" stroke="#6b5f50" stroke-width="11.7"/><line x1="288.7623591853362" y1="288.7623591853362" x2="66.91823543406954" y2="229.31940538059428" stroke="#6b5f50" stroke-width="11.7"/><line x1="160.68059461940572" y1="323.0817645659305" x2="101.23764081466376" y2="101.23764081466379" stroke="#6b5f50" stroke-width="11.7"/><line x1="66.91823543406954" y1="229.31940538059428" x2="229.31940538059425" y2="66.91823543406952" stroke="#6b5f50" stroke-width="11.7"/><line x1="101.23764081466376" y1="101.23764081466379" x2="323.0817645659305" y2="160.68059461940575" stroke="#6b5f50" stroke-width="11.7"/><circle cx="195" cy="195" r="70.2" fill="#e8b44a" opacity=".1"/><circle cx="195" cy="195" r="39" fill="#e8b44a"/><circle cx="229.31940538059425" cy="66.91823543406952" r="27.300000000000004" fill="#e06530"/><circle cx="323.0817645659305" cy="160.68059461940575" r="27.300000000000004" fill="#e8b44a"/><circle cx="288.7623591853362" cy="288.7623591853362" r="27.300000000000004" fill="#4ca8a8"/><circle cx="160.68059461940572" cy="323.0817645659305" r="27.300000000000004" fill="#e06530"/><circle cx="66.91823543406954" cy="229.31940538059428" r="27.300000000000004" fill="#4ca8a8"/><circle cx="101.23764081466376" cy="101.23764081466379" r="27.300000000000004" fill="#e8b44a"/></g></svg>