<svg xmlns="http://www.w3.org/2000/svg" viewBox="0 0 512 512" width="512" height="512"><rect width="512" height="512" rx="102" fill="#14110e"/><g transform="translate(77,77)"><line x1="179" y1="179" x2="210.50345416987884" y2="61.4275084240946" stroke="#f5f0e4" stroke-width="8.950000000000001" opacity="0.55"/><line x1="179" y1="179" x2="296.5724915759054" y2="147.49654583012116" stroke="#f5f0e4" stroke-width="8.950000000000001" opacity="0.55"/><line x1="179" y1="179" x2="265.0690374060266" y2="265.06903740602655" stroke="#f5f0e4" stroke-width="8.950000000000001" opacity="0.55"/><line x1="179" y1="179" x2="147.49654583012116" y2="296.5724915759054" stroke="#f5f0e4" stroke-width="8.950000000000001" opacity="0.55"/><line x1="179" y1="179" x2="61.42750842409461" y2="210.50345416987886" stroke="#f5f0e4" stroke-width="8.950000000000001" opacity="0.55"/><line x1="179" y1="179" x2="92.9309625939734" y2="92.93096259397343" stroke="#f5f0e4" stroke-width="8.950000000000001" opacity="0.55"/><line x1="210.50345416987884" y1="61.4275084240946" x2="265.0690374060266" y2="265.06903740602655" stroke="#f5f0e4" stroke-width="6.265000000000001" opacity="0.24750000000000003"/><line x1="296.5724915759054" y1="147.49654583012116" x2="147.49654583012116" y2="296.5724915759054" stroke="#f5f0e4" stroke-width="6.265000000000001" opacity="0.24750000000000003"/><line x1="265.0690374060266" y1="265.06903740602655" x2="61.42750842409461" y2="210.50345416987886" stroke="#f5f0e4" stroke-width="6.265000000000001" opacity="0.24750000000000003"/><line x1="147.49654583012116" y1="296.5724915759054" x2="92.9309625939734" y2="92.93096259397343" stroke="#f5f0e4" stroke-width="6.265000000000001" opacity="0.24750000000000003"/><line x1="61.42750842409461" y1="210.50345416987886" x2="210.50345416987884" y2="61.4275084240946" stroke="#f5f0e4" stroke-width="6.265000000000001" opacity="0.24750000000000003"/><line x1="92.9309625939734" y1="92.93096259397343" x2="296.5724915759054" y2="147.49654583012116" stroke="#f5f0e4" stroke-width="6.265000000000001" opacity="0.24750000000000003"/><circle cx="179" cy="179" r="51.552" fill="#e8b44a" opacity=".08"/><circle cx="179" cy="179" r="28.64" fill="#e8b44a"/><circle cx="210.50345416987884" cy="61.4275084240946" r="19.69" fill="#e06530"/><circle cx="296.5724915759054" cy="147.49654583012116" r="19.69" fill="#e8b44a"/><circle cx="265.0690374060266" cy="265.06903740602655" r="19.69" fill="#4ca8a8"/><circle cx="147.49654583012116" cy="296.5724915759054" r="19.69" fill="#e06530"/><circle cx="61.42750842409461" cy="210.50345416987886" r="19.69" fill="#4ca8a8"/><circle cx="92.9309625939734" cy="92.93096259397343" r="19.69" fill="#e8b44a"/></g></svg>