<svg xmlns="http://www.w3.org/2000/svg" viewBox="0 0 1200 630" width="1200" height="630"><rect width="1200" height="630" fill="#0a0806"/><defs><pattern id="grid" width="40" height="40" patternUnits="userSpaceOnUse"><path d="M 40 0 L 0 0 0 40" fill="none" stroke="#f5f0e4" stroke-width="0.3" opacity="0.04"/></pattern></defs><rect width="1200" height="630" fill="url(#grid)"/><g transform="translate(180,255)"><line x1="60" y1="60" x2="70.55981704018285" y2="20.59022628740601" stroke="#f5f0e4" stroke-width="3" opacity="0.55"/><line x1="60" y1="60" x2="99.40977371259399" y2="49.44018295981715" stroke="#f5f0e4" stroke-width="3" opacity="0.55"/><line x1="60" y1="60" x2="88.84995667241114" y2="88.84995667241114" stroke="#f5f0e4" stroke-width="3" opacity="0.55"/><line x1="60" y1="60" x2="49.44018295981715" y2="99.40977371259399" stroke="#f5f0e4" stroke-width="3" opacity="0.55"/><line x1="60" y1="60" x2="20.59022628740601" y2="70.55981704018286" stroke="#f5f0e4" stroke-width="3" opacity="0.55"/><line x1="60" y1="60" x2="31.15004332758885" y2="31.15004332758886" stroke="#f5f0e4" stroke-width="3" opacity="0.55"/><line x1="70.55981704018285" y1="20.59022628740601" x2="88.84995667241114" y2="88.84995667241114" stroke="#f5f0e4" stroke-width="2.0999999999999996" opacity="0.24750000000000003"/><line x1="99.40977371259399" y1="49.44018295981715" x2="49.44018295981715" y2="99.40977371259399" stroke="#f5f0e4" stroke-width="2.0999999999999996" opacity="0.24750000000000003"/><line x1="88.84995667241114" y1="88.84995667241114" x2="20.59022628740601" y2="70.55981704018286" stroke="#f5f0e4" stroke-width="2.0999999999999996" opacity="0.24750000000000003"/><line x1="49.44018295981715" y1="99.40977371259399" x2="31.15004332758885" y2="31.15004332758886" stroke="#f5f0e4" stroke-width="2.0999999999999996" opacity="0.24750000000000003"/><line x1="20.59022628740601" y1="70.55981704018286" x2="70.55981704018285" y2="20.59022628740601" stroke="#f5f0e4" stroke-width="2.0999999999999996" opacity="0.24750000000000003"/><line x1="31.15004332758885" y1="31.15004332758886" x2="99.40977371259399" y2="49.44018295981715" stroke="#f5f0e4" stroke-width="2.0999999999999996" opacity="0.24750000000000003"/><circle cx="60" cy="60" r="17.28" fill="#e8b44a" opacity=".08"/><circle cx="60" cy="60" r="9.6" fill="#e8b44a"/><circle cx="70.55981704018285" cy="20.59022628740601" r="6.6" fill="#e06530"/><circle cx="99.40977371259399" cy="49.44018295981715" r="6.6" fill="#e8b44a"/><circle cx="88.84995667241114" cy="88.84995667241114" r="6.6" fill="#4ca8a8"/><circle cx="49.44018295981715" cy="99.40977371259399" r="6.6" fill="#e06530"/><circle cx="20.59022628740601" cy="70.55981704018286" r="6.6" fill="#4ca8a8"/><circle cx="31.15004332758885" cy="31.15004332758886" r="6.6" fill="#e8b44a"/></g><text x="380" y="270" font-family="'SF Mono',Menlo,monospace" font-weight="700" font-size="56" letter-spacing="6.7" fill="#f5f0e4">PARACOSM</text><text x="380" y="320" font-family="'SF Mono',Menlo,monospace" font-weight="400" font-size="18" letter-spacing="1" fill="#6b6356">AI Agent Swarm Simulation Engine</text><text x="380" y="400" font-family="'SF Mono',Menlo,monospace" font-size="14" fill="#3d3730">$</text><text x="400" y="400" font-family="'SF Mono',Menlo,monospace" font-size="14" fill="#e8b44a">npm install</text><text x="540" y="400" font-family="'SF Mono',Menlo,monospace" font-size="14" fill="#f5f0e4">paracosm</text><rect x="380" y="340" width="60" height="3" rx="1.5" fill="#e06530"/><rect x="450" y="340" width="40" height="3" rx="1.5" fill="#e8b44a"/><rect x="500" y="340" width="50" height="3" rx="1.5" fill="#4ca8a8"/><text x="380" y="560" font-family="'SF Mono',Menlo,monospace" font-size="11" fill="#3d3730">Apache-2.0 . TypeScript . Built on AgentOS</text></svg>