<svg xmlns="http://www.w3.org/2000/svg" viewBox="0 0 64 64" width="64" height="64"><line x1="32" y1="32" x2="37.63190242143085" y2="10.981454019949872" stroke="#8a7e6c" stroke-width="1.6" opacity="0.55"/><line x1="32" y1="32" x2="53.01854598005013" y2="26.36809757856915" stroke="#8a7e6c" stroke-width="1.6" opacity="0.55"/><line x1="32" y1="32" x2="47.38664355861928" y2="47.38664355861928" stroke="#8a7e6c" stroke-width="1.6" opacity="0.55"/><line x1="32" y1="32" x2="26.368097578569145" y2="53.01854598005013" stroke="#8a7e6c" stroke-width="1.6" opacity="0.55"/><line x1="32" y1="32" x2="10.981454019949876" y2="37.63190242143086" stroke="#8a7e6c" stroke-width="1.6" opacity="0.55"/><line x1="32" y1="32" x2="16.613356441380724" y2="16.613356441380724" stroke="#8a7e6c" stroke-width="1.6" opacity="0.55"/><line x1="37.63190242143085" y1="10.981454019949872" x2="47.38664355861928" y2="47.38664355861928" stroke="#8a7e6c" stroke-width="1.1199999999999999" opacity="0.24750000000000003"/><line x1="53.01854598005013" y1="26.36809757856915" x2="26.368097578569145" y2="53.01854598005013" stroke="#8a7e6c" stroke-width="1.1199999999999999" opacity="0.24750000000000003"/><line x1="47.38664355861928" y1="47.38664355861928" x2="10.981454019949876" y2="37.63190242143086" stroke="#8a7e6c" stroke-width="1.1199999999999999" opacity="0.24750000000000003"/><line x1="26.368097578569145" y1="53.01854598005013" x2="16.613356441380724" y2="16.613356441380724" stroke="#8a7e6c" stroke-width="1.1199999999999999" opacity="0.24750000000000003"/><line x1="10.981454019949876" y1="37.63190242143086" x2="37.63190242143085" y2="10.981454019949872" stroke="#8a7e6c" stroke-width="1.1199999999999999" opacity="0.24750000000000003"/><line x1="16.613356441380724" y1="16.613356441380724" x2="53.01854598005013" y2="26.36809757856915" stroke="#8a7e6c" stroke-width="1.1199999999999999" opacity="0.24750000000000003"/><circle cx="32" cy="32" r="9.216000000000001" fill="#7a5200" opacity=".08"/><circle cx="32" cy="32" r="5.12" fill="#7a5200"/><circle cx="37.63190242143085" cy="10.981454019949872" r="3.52" fill="#a83810"/><circle cx="53.01854598005013" cy="26.36809757856915" r="3.52" fill="#7a5200"/><circle cx="47.38664355861928" cy="47.38664355861928" r="3.52" fill="#186060"/><circle cx="26.368097578569145" cy="53.01854598005013" r="3.52" fill="#a83810"/><circle cx="10.981454019949876" cy="37.63190242143086" r="3.52" fill="#186060"/><circle cx="16.613356441380724" cy="16.613356441380724" r="3.52" fill="#7a5200"/></svg>